<svg width="17" height="17" viewBox="0 0 17 17" fill="none" xmlns="http://www.w3.org/2000/svg">
<g clip-path="url(#clip0_621_175)">
<path d="M3.20157 4.20397L0.987325 1.98901L1.98891 0.987427L16.0132 15.011L15.0116 16.0133L12.667 13.6687C11.421 14.459 9.97542 14.8775 8.49991 14.875C4.68057 14.875 1.50299 12.1267 0.837158 8.50001C1.14152 6.85053 1.97088 5.34362 3.20157 4.20397ZM10.4535 11.4552L9.41649 10.4182C9.01986 10.608 8.57412 10.67 8.14073 10.5958C7.70735 10.5216 7.30764 10.3148 6.99673 10.0039C6.68582 9.69298 6.47901 9.29328 6.40481 8.85989C6.33061 8.4265 6.39268 7.98077 6.58245 7.58413L5.54545 6.54713C5.09475 7.22819 4.89327 8.04408 4.97512 8.85665C5.05698 9.66922 5.41714 10.4285 5.99462 11.006C6.5721 11.5835 7.33141 11.9437 8.14398 12.0255C8.95655 12.1074 9.77244 11.9059 10.4535 11.4552ZM5.64816 2.66334C6.53145 2.31626 7.49407 2.12501 8.49991 2.12501C12.3192 2.12501 15.4968 4.87334 16.1634 8.50001C15.9464 9.68013 15.4586 10.7938 14.7382 11.7534L12.004 9.01922C12.0853 8.47211 12.0372 7.91359 11.8637 7.38839C11.6903 6.86319 11.3962 6.38593 11.0051 5.99482C10.614 5.60372 10.1367 5.30966 9.61153 5.13619C9.08633 4.96272 8.52781 4.91467 7.9807 4.99588L5.64816 2.66334Z" fill="#76B9D3"/>
</g>
<defs>
<clipPath id="clip0_621_175">
<rect width="17" height="17" fill="white"/>
</clipPath>
</defs>
</svg>
