<svg width="33" height="33" viewBox="0 0 33 33" fill="none" xmlns="http://www.w3.org/2000/svg">
<g id="ic:sharp-add-task">
<path id="Vector" d="M29.4545 8.975L14.9327 23.25L9.53636 17.95L11.3309 16.1875L14.9327 19.725L27.66 7.225L29.4545 8.975ZM16.7273 27.5C11.1145 27.5 6.54545 23.0125 6.54545 17.5C6.54545 11.9875 11.1145 7.5 16.7273 7.5C18.7255 7.5 20.5964 8.075 22.1745 9.0625L24.02 7.25C21.8805 5.78527 19.3352 4.99998 16.7273 5C9.70182 5 4 10.6 4 17.5C4 24.4 9.70182 30 16.7273 30C18.9291 30 21.0036 29.45 22.8109 28.475L20.9018 26.6C19.6291 27.175 18.2164 27.5 16.7273 27.5ZM25.6364 21.25H21.8182V23.75H25.6364V27.5H28.1818V23.75H32V21.25H28.1818V17.5H25.6364V21.25Z" fill="white"/>
</g>
</svg>
