<svg width="33" height="33" viewBox="0 0 33 33" fill="none" xmlns="http://www.w3.org/2000/svg">
<g id="Group 278">
<path id="Vector" d="M6.3501 4.9C6.3501 4.13087 6.65563 3.39325 7.19949 2.84939C7.74334 2.30553 8.48097 2 9.2501 2H23.7501C24.5192 2 25.2569 2.30553 25.8007 2.84939C26.3446 3.39325 26.6501 4.13087 26.6501 4.9V12.15C26.6501 14.8419 25.5807 17.4236 23.6772 19.3271C21.7737 21.2306 19.192 22.3 16.5001 22.3C13.8082 22.3 11.2265 21.2306 9.32296 19.3271C7.41947 17.4236 6.3501 14.8419 6.3501 12.15V4.9ZM12.1501 31H20.8501L16.5001 23.75L12.1501 31Z" stroke="white" stroke-width="3" stroke-linecap="round" stroke-linejoin="round"/>
<path id="Vector_2" d="M6.35 4.8999H4.9C4.13087 4.8999 3.39325 5.20544 2.84939 5.74929C2.30553 6.29315 2 7.03077 2 7.7999V9.59645C1.99998 10.6506 2.28723 11.6848 2.83089 12.5879C3.37454 13.491 4.15404 14.2289 5.0856 14.7222L7.075 15.7749M26.65 4.8999H28.1C28.8691 4.8999 29.6068 5.20544 30.1506 5.74929C30.6945 6.29315 31 7.03077 31 7.7999V8.72355C31.0001 10.0413 30.6411 11.3341 29.9615 12.4631C29.2819 13.592 28.3075 14.5144 27.143 15.1311L25.925 15.7749" stroke="white" stroke-width="3" stroke-linejoin="round"/>
</g>
</svg>
