<svg width="24" height="24" viewBox="0 0 24 24" fill="none" xmlns="http://www.w3.org/2000/svg">
<path d="M20.75 18.25H3.25C1.87125 18.25 0.75 19.3713 0.75 20.75C0.75 22.1287 1.87125 23.25 3.25 23.25H20.75C22.1287 23.25 23.25 22.1287 23.25 20.75C23.25 19.3713 22.1287 18.25 20.75 18.25ZM20.75 9.5H3.25C1.87125 9.5 0.75 10.6213 0.75 12C0.75 13.3787 1.87125 14.5 3.25 14.5H20.75C22.1287 14.5 23.25 13.3787 23.25 12C23.25 10.6213 22.1287 9.5 20.75 9.5ZM20.75 0.75H3.25C1.87125 0.75 0.75 1.87125 0.75 3.25C0.75 4.62875 1.87125 5.75 3.25 5.75H20.75C22.1287 5.75 23.25 4.62875 23.25 3.25C23.25 1.87125 22.1287 0.75 20.75 0.75Z" fill="#E24443"/>
</svg>
