<svg width="27" height="27" viewBox="0 0 27 27" fill="none" xmlns="http://www.w3.org/2000/svg">
<path d="M13.5 17.7188C15.364 17.7188 16.875 16.2077 16.875 14.3438C16.875 12.4798 15.364 10.9688 13.5 10.9688C11.636 10.9688 10.125 12.4798 10.125 14.3438C10.125 16.2077 11.636 17.7188 13.5 17.7188Z" fill="#004D85"/>
<path d="M22.7812 7.59375H19.6699C19.5117 7.59375 19.3155 7.49145 19.1626 7.33008L17.7947 5.17113C17.7731 5.13687 17.7489 5.10426 17.7224 5.07357C17.2499 4.5225 16.6113 4.21875 15.9258 4.21875H11.0742C10.3887 4.21875 9.75006 4.5225 9.27756 5.07357C9.25109 5.10426 9.22694 5.13687 9.20531 5.17113L7.83738 7.33324C7.72031 7.46086 7.55578 7.59691 7.38281 7.59691V7.17504C7.38281 6.95126 7.29392 6.73665 7.13568 6.57842C6.97745 6.42018 6.76284 6.33129 6.53906 6.33129H5.27344C5.04966 6.33129 4.83505 6.42018 4.67682 6.57842C4.51858 6.73665 4.42969 6.95126 4.42969 7.17504V7.59691H4.21875C3.54763 7.59761 2.90421 7.86452 2.42966 8.33907C1.95511 8.81362 1.6882 9.45705 1.6875 10.1282V20.25C1.6882 20.9211 1.95511 21.5645 2.42966 22.0391C2.90421 22.5136 3.54763 22.7806 4.21875 22.7812H22.7812C23.4524 22.7806 24.0958 22.5136 24.5703 22.0391C25.0449 21.5645 25.3118 20.9211 25.3125 20.25V10.125C25.3118 9.45389 25.0449 8.81046 24.5703 8.33591C24.0958 7.86136 23.4524 7.59445 22.7812 7.59375ZM13.5 19.4062C12.4987 19.4062 11.5199 19.1093 10.6874 18.5531C9.8549 17.9968 9.20603 17.2061 8.82286 16.2811C8.43969 15.356 8.33944 14.3381 8.53477 13.3561C8.73011 12.3741 9.21227 11.472 9.92027 10.764C10.6283 10.056 11.5303 9.57386 12.5124 9.37852C13.4944 9.18319 14.5123 9.28344 15.4373 9.66661C16.3624 10.0498 17.153 10.6987 17.7093 11.5312C18.2656 12.3637 18.5625 13.3425 18.5625 14.3438C18.561 15.6859 18.0271 16.9727 17.078 17.9218C16.129 18.8709 14.8422 19.4047 13.5 19.4062Z" fill="#004D85"/>
</svg>
