<svg width="57" height="58" viewBox="0 0 57 58" fill="none" xmlns="http://www.w3.org/2000/svg">
<path d="M40.375 43.4999C37.7388 43.4999 35.625 45.6508 35.625 48.3333C35.625 49.6151 36.1254 50.8445 37.0162 51.7509C37.907 52.6574 39.1152 53.1666 40.375 53.1666C41.6348 53.1666 42.843 52.6574 43.7338 51.7509C44.6246 50.8445 45.125 49.6151 45.125 48.3333C45.125 47.0514 44.6246 45.822 43.7338 44.9156C42.843 44.0091 41.6348 43.4999 40.375 43.4999ZM2.375 4.83325V9.66659H7.125L15.675 28.0091L12.445 33.9299C12.0887 34.6066 11.875 35.4041 11.875 36.2499C11.875 37.5318 12.3754 38.7612 13.2662 39.6676C14.157 40.574 15.3652 41.0833 16.625 41.0833H45.125V36.2499H17.6225C17.465 36.2499 17.314 36.1863 17.2027 36.073C17.0913 35.9597 17.0288 35.806 17.0288 35.6458C17.0288 35.5249 17.0525 35.4283 17.1 35.3558L19.2375 31.4166H36.9313C38.7125 31.4166 40.28 30.4016 41.0875 28.9274L49.59 13.2916C49.7562 12.9049 49.875 12.4941 49.875 12.0833C49.875 11.4423 49.6248 10.8276 49.1794 10.3744C48.734 9.9212 48.1299 9.66659 47.5 9.66659H12.3737L10.1413 4.83325M16.625 43.4999C13.9887 43.4999 11.875 45.6508 11.875 48.3333C11.875 49.6151 12.3754 50.8445 13.2662 51.7509C14.157 52.6574 15.3652 53.1666 16.625 53.1666C17.8848 53.1666 19.093 52.6574 19.9838 51.7509C20.8746 50.8445 21.375 49.6151 21.375 48.3333C21.375 47.0514 20.8746 45.822 19.9838 44.9156C19.093 44.0091 17.8848 43.4999 16.625 43.4999Z" fill="#BB1565"/>
</svg>
