<svg width="57" height="58" viewBox="0 0 57 58" fill="none" xmlns="http://www.w3.org/2000/svg">
<path d="M42.8925 55.5834H46.835C48.83 55.5834 50.4688 54.0126 50.7063 52.0309L54.625 12.2042H42.75V2.41675H38.0713V12.2042H26.2675L26.98 17.8592C31.0413 18.9951 34.8413 21.0492 37.1213 23.3209C40.5413 26.7526 42.8925 30.3051 42.8925 36.1051V55.5834ZM2.375 53.1667V50.7501H38.0713V53.1667C38.0713 54.4717 37.0025 55.5834 35.625 55.5834H4.75C3.44375 55.5834 2.375 54.4717 2.375 53.1667ZM38.0713 36.2501C38.0713 16.9167 2.375 16.9167 2.375 36.2501H38.0713ZM2.375 41.0834H38V45.9167H2.375V41.0834Z" fill="#C90000"/>
</svg>
