<svg width="52" height="59" viewBox="0 0 52 59" fill="none" xmlns="http://www.w3.org/2000/svg">
<path d="M10.4502 12.3C10.4502 11.1596 10.9032 10.0658 11.7096 9.25944C12.516 8.45303 13.6098 8 14.7502 8H36.2502C37.3906 8 38.4843 8.45303 39.2908 9.25944C40.0972 10.0658 40.5502 11.1596 40.5502 12.3V23.05C40.5502 27.0415 38.9646 30.8695 36.1422 33.692C33.3197 36.5144 29.4917 38.1 25.5002 38.1C21.5087 38.1 17.6807 36.5144 14.8582 33.692C12.0358 30.8695 10.4502 27.0415 10.4502 23.05V12.3ZM19.0502 51H31.9502L25.5002 40.25L19.0502 51Z" stroke="#8CB8D1" stroke-width="4" stroke-linecap="round" stroke-linejoin="round"/>
<path d="M10.45 12.3H8.3C7.15957 12.3 6.06585 12.7531 5.25944 13.5595C4.45303 14.3659 4 15.4596 4 16.6V19.2639C3.99997 20.8269 4.4259 22.3604 5.23201 23.6995C6.03812 25.0386 7.19392 26.1327 8.5752 26.8642L11.525 28.425M40.55 12.3H42.7C43.8404 12.3 44.9341 12.7531 45.7406 13.5595C46.547 14.3659 47 15.4596 47 16.6V17.9696C47.0001 19.9235 46.4678 21.8404 45.4601 23.5144C44.4525 25.1883 43.0077 26.556 41.281 27.4704L39.475 28.425" stroke="#8CB8D1" stroke-width="4" stroke-linejoin="round"/>
</svg>
