<svg width="61" height="61" viewBox="0 0 61 61" fill="none" xmlns="http://www.w3.org/2000/svg">
<path d="M10.1665 38.1249H15.2498C16.598 38.1249 17.891 38.6605 18.8443 39.6138C19.7976 40.5671 20.3332 41.8601 20.3332 43.2083V48.2916H22.8748V43.2083C22.8748 41.8601 23.4104 40.5671 24.3637 39.6138C25.317 38.6605 26.61 38.1249 27.9582 38.1249H33.0415C34.3897 38.1249 35.6827 38.6605 36.636 39.6138C37.5893 40.5671 38.1248 41.8601 38.1248 43.2083V48.2916H40.6665V43.2083C40.6665 41.8601 41.2021 40.5671 42.1554 39.6138C43.1087 38.6605 44.4016 38.1249 45.7498 38.1249H50.8332C52.1814 38.1249 53.4743 38.6605 54.4276 39.6138C55.3809 40.5671 55.9165 41.8601 55.9165 43.2083V48.2916H58.4582V55.9166H2.5415V48.2916H5.08317V43.2083C5.08317 41.8601 5.61873 40.5671 6.57204 39.6138C7.52535 38.6605 8.81832 38.1249 10.1665 38.1249ZM27.9582 17.7916L38.1248 25.4166L27.9582 33.0416V17.7916ZM10.1665 5.08325H50.8332C52.1814 5.08325 53.4743 5.61882 54.4276 6.57213C55.3809 7.52544 55.9165 8.8184 55.9165 10.1666V34.4141C54.3768 33.5067 52.6204 33.0325 50.8332 33.0416V10.1666H10.1665V33.0416C8.31109 33.0416 6.58275 33.5245 5.08317 34.4141V10.1666C5.08317 8.8184 5.61873 7.52544 6.57204 6.57213C7.52535 5.61882 8.81832 5.08325 10.1665 5.08325Z" fill="#0876C6"/>
</svg>
