<svg width="22" height="22" viewBox="0 0 22 22" fill="none" xmlns="http://www.w3.org/2000/svg">
<path d="M15.5833 3.06173C16.9768 3.86628 18.134 5.02347 18.9385 6.41699C19.743 7.81051 20.1666 9.39126 20.1666 11.0004C20.1666 12.6095 19.743 14.1902 18.9384 15.5837C18.1339 16.9772 16.9767 18.1344 15.5832 18.9389C14.1896 19.7435 12.6089 20.167 10.9998 20.167C9.39068 20.1669 7.80994 19.7434 6.41643 18.9388C5.02293 18.1342 3.86577 16.977 3.06125 15.5835C2.25673 14.1899 1.83321 12.6092 1.83325 11.0001L1.83784 10.7031C1.88917 9.11997 2.34984 7.5772 3.17492 6.22514C4.00001 4.87309 5.16135 3.7579 6.54574 2.98829C7.93012 2.21868 9.4903 1.82093 11.0742 1.8338C12.658 1.84667 14.2116 2.26973 15.5833 3.06173ZM10.9999 5.50006C10.7568 5.50006 10.5236 5.59664 10.3517 5.76855C10.1798 5.94046 10.0833 6.17362 10.0833 6.41673C9.35391 6.41673 8.65443 6.70646 8.13871 7.22219C7.62298 7.73791 7.33325 8.43739 7.33325 9.16673C7.33325 9.89608 7.62298 10.5955 8.13871 11.1113C8.65443 11.627 9.35391 11.9167 10.0833 11.9167V13.7501C9.93123 13.7585 9.77945 13.7296 9.6411 13.6661C9.50276 13.6025 9.38203 13.5061 9.28942 13.3852L9.22709 13.2926C9.10167 13.0904 8.90251 12.9448 8.67171 12.8868C8.44092 12.8287 8.19658 12.8626 7.99038 12.9815C7.78417 13.1003 7.63226 13.2946 7.56676 13.5234C7.50127 13.7522 7.52732 13.9975 7.63942 14.2075C7.87339 14.6133 8.20712 14.9525 8.60898 15.1932C9.01084 15.4338 9.4675 15.5678 9.93567 15.5825H10.0833C10.0831 15.8072 10.1654 16.0241 10.3146 16.1921C10.4638 16.36 10.6695 16.4674 10.8927 16.4936L10.9999 16.5001C11.243 16.5001 11.4762 16.4035 11.6481 16.2316C11.82 16.0597 11.9166 15.8265 11.9166 15.5834L12.0779 15.5788C12.7926 15.5375 13.4629 15.2192 13.9466 14.6915C14.4302 14.1637 14.6891 13.4682 14.6681 12.7527C14.647 12.0372 14.3479 11.358 13.8341 10.8596C13.3203 10.3612 12.6324 10.0827 11.9166 10.0834V8.25006C12.2448 8.23906 12.5317 8.3784 12.7104 8.6149L12.7728 8.70748C12.8982 8.90974 13.0973 9.0553 13.3281 9.11337C13.5589 9.17144 13.8033 9.13748 14.0095 9.01866C14.2157 8.89984 14.3676 8.70548 14.4331 8.47669C14.4986 8.24789 14.4725 8.00258 14.3604 7.79265C14.1266 7.3867 13.7929 7.04723 13.391 6.80643C12.9891 6.56563 12.5324 6.43149 12.0642 6.41673H11.9166C11.9166 6.17362 11.82 5.94046 11.6481 5.76855C11.4762 5.59664 11.243 5.50006 10.9999 5.50006ZM11.9166 11.9167C12.1597 11.9167 12.3929 12.0133 12.5648 12.1852C12.7367 12.3571 12.8333 12.5903 12.8333 12.8334C12.8333 13.0765 12.7367 13.3097 12.5648 13.4816C12.3929 13.6535 12.1597 13.7501 11.9166 13.7501V11.9167ZM10.0833 8.25006V10.0834C9.84014 10.0834 9.60698 9.98682 9.43507 9.81491C9.26316 9.643 9.16659 9.40985 9.16659 9.16673C9.16659 8.92362 9.26316 8.69046 9.43507 8.51855C9.60698 8.34664 9.84014 8.25006 10.0833 8.25006Z" fill="#E24443"/>
</svg>
