<svg width="56" height="56" viewBox="0 0 56 56" fill="none" xmlns="http://www.w3.org/2000/svg">
<path d="M5.6001 28.3499C8.0501 21.3733 15.0618 16.3333 23.3334 16.3333C32.5664 16.3333 40.2338 22.6123 41.7341 30.8606C40.2058 30.2166 38.2224 29.6823 36.2158 29.3486C32.1674 28.6766 29.0758 30.0766 26.4274 31.2853L26.4018 31.2969C23.7091 32.5266 21.4761 33.5463 18.5384 33.2149C16.1981 32.9513 14.0911 32.2116 12.1124 31.3343C11.2164 30.9376 10.3648 30.5223 9.52243 30.1093L9.2401 29.9716C8.33767 29.5205 7.42014 29.1002 6.4891 28.7116L5.6001 28.3499Z" fill="#6CA313"/>
<path d="M4.79041 31.7987C4.70795 32.4699 4.66665 33.1455 4.66675 33.8217C4.66675 38.2901 6.45408 42.3664 9.39875 45.4581C10.4487 46.5617 10.9737 47.1124 13.1741 48.0574C15.3767 49.0001 16.8934 49.0001 19.9314 49.0001H26.7354C29.7734 49.0001 31.2901 49.0001 33.4927 48.0574C35.6931 47.1124 36.2181 46.5617 37.2704 45.4581C39.9724 42.6184 41.6991 38.9481 41.9651 34.9114L41.1507 34.4587C40.0517 33.8474 37.9914 33.1917 35.6417 32.8021C32.7507 32.3214 30.5457 33.2524 27.8811 34.4704L27.6244 34.5871C25.0717 35.7537 22.0571 37.1351 18.1464 36.6941C15.3114 36.3744 12.8381 35.4831 10.6937 34.5334C9.73708 34.1087 8.82708 33.6654 7.98708 33.2547L7.70708 33.1171C6.8773 32.7014 6.03371 32.3138 5.17775 31.9551L4.79041 31.7987ZM29.3067 5.69341C30.1327 6.51708 30.2937 7.74675 30.3264 9.91675H33.4134C35.4959 9.91689 37.5498 10.4018 39.4124 11.3331L41.3631 12.3084C42.9521 11.0274 45.5631 10.9387 47.8334 12.2501C50.6241 13.8601 51.8421 16.9751 50.5518 19.2081C49.2637 21.4387 45.9551 21.9427 43.1667 20.3327C41.1974 19.1941 40.0097 17.3064 39.9374 15.5097L37.8467 14.4644C36.4703 13.7759 34.9525 13.4172 33.4134 13.4167H30.3334V15.1294C28.0761 14.3785 25.7123 13.9972 23.3334 14.0001C20.8834 14.0001 18.5267 14.3967 16.3334 15.1294V13.4167H16.5831C16.8094 13.4191 17.0731 13.4214 17.2971 13.4167C17.6214 13.4051 18.0601 13.3747 18.5011 13.2394C18.9724 13.0924 19.5207 12.8007 19.9197 12.2244C20.3071 11.6691 20.4167 11.0461 20.4167 10.5001C20.4167 9.95408 20.3071 9.33108 19.9197 8.77341C19.5741 8.28503 19.0732 7.92809 18.4987 7.76075C18.107 7.64903 17.7021 7.59017 17.2947 7.58575C17.0583 7.58069 16.8219 7.57991 16.5854 7.58341H16.4967C16.6344 6.75741 16.8887 6.16008 17.3554 5.69341C18.3867 4.66675 20.0341 4.66675 23.3334 4.66675C26.6327 4.66675 28.2824 4.66675 29.3067 5.69341Z" fill="#6CA313"/>
</svg>
